<?xml version="1.0" standalone="no"?>
<!DOCTYPE svg PUBLIC "-//W3C//DTD SVG 20010904//EN"
 "http://www.w3.org/TR/2001/REC-SVG-20010904/DTD/svg10.dtd">
<svg version="1.0" xmlns="http://www.w3.org/2000/svg"
 width="379.000000pt" height="379.000000pt" viewBox="0 0 379.000000 379.000000"
 preserveAspectRatio="xMidYMid meet">
<metadata>
Created by potrace 1.11, written by Peter Selinger 2001-2013
</metadata>
<g transform="translate(0.000000,379.000000) scale(0.100000,-0.100000)"
fill="#000000" stroke="none">
<path d="M1680 3730 c-25 -4 -63 -10 -85 -13 -122 -17 -350 -82 -455 -129
-243 -109 -419 -228 -591 -398 -295 -291 -476 -651 -533 -1056 -12 -88 -14
-405 -3 -469 2 -11 9 -54 17 -95 16 -95 69 -273 109 -369 94 -224 222 -413
401 -592 214 -214 467 -371 745 -460 89 -29 202 -58 254 -65 25 -3 49 -8 53
-10 16 -10 166 -19 308 -19 186 0 288 11 434 45 214 50 416 136 600 253 93 59
82 52 201 150 301 248 521 605 610 990 9 38 18 85 21 105 2 20 8 66 13 102 9
65 7 366 -3 428 -3 18 -8 51 -11 74 -11 73 -55 230 -91 328 -93 248 -236 466
-436 663 -284 280 -613 446 -1033 523 -97 18 -444 27 -525 14z"/>
</g>
</svg>
